<svg width="22" height="26" viewBox="0 0 22 26" fill="none" xmlns="http://www.w3.org/2000/svg">
<path d="M14.0296 8.90688L13.6115 19.7819M7.826 19.7819L7.40792 8.90688M19.4526 5.02813C19.8658 5.09096 20.2767 5.15742 20.6875 5.22871M19.4526 5.02813L18.1621 21.8034C18.1094 22.4864 17.8009 23.1243 17.2982 23.5896C16.7954 24.0549 16.1356 24.3133 15.4506 24.3131H5.98692C5.30191 24.3133 4.64207 24.0549 4.13935 23.5896C3.63663 23.1243 3.32809 22.4864 3.27542 21.8034L1.98492 5.02813M19.4526 5.02813C18.058 4.8173 16.6562 4.65729 15.25 4.54842M1.98492 5.02813C1.57167 5.08975 1.16083 5.15621 0.75 5.2275M1.98492 5.02813C3.37949 4.8173 4.78128 4.65729 6.1875 4.54842M15.25 4.54842V3.44159C15.25 2.01576 14.1504 0.826755 12.7246 0.782047C11.3877 0.739318 10.0498 0.739318 8.71292 0.782047C7.28708 0.826755 6.1875 2.01696 6.1875 3.44159V4.54842M15.25 4.54842C12.2337 4.31531 9.20384 4.31531 6.1875 4.54842" stroke="black" stroke-width="1.5" stroke-linecap="round" stroke-linejoin="round"/>
</svg>
