<svg width="42" height="39" viewBox="0 0 42 39" fill="none" xmlns="http://www.w3.org/2000/svg">
<path d="M1.50783 4.12952e-08C1.10793 4.12952e-08 0.724407 0.158035 0.441634 0.43934C0.158861 0.720644 0 1.10218 0 1.5C0 1.89782 0.158861 2.27936 0.441634 2.56066C0.724407 2.84196 1.10793 3 1.50783 3H4.29431C4.63608 3 4.93363 3.228 5.02209 3.556L10.1648 22.74C8.54955 23.1587 7.11951 24.0985 6.09867 25.4122C5.07783 26.726 4.52385 28.3395 4.5235 30C4.5235 30.828 5.19901 31.5 6.03133 31.5H37.6958C38.0957 31.5 38.4792 31.342 38.762 31.0607C39.0448 30.7794 39.2036 30.3978 39.2036 30C39.2036 29.6022 39.0448 29.2206 38.762 28.9393C38.4792 28.658 38.0957 28.5 37.6958 28.5H7.7965C8.10839 27.6224 8.68616 26.8627 9.45021 26.3254C10.2143 25.7881 11.127 25.4997 12.0627 25.5H34.6158C34.8983 25.5 35.1751 25.4211 35.4146 25.2722C35.6542 25.1233 35.8469 24.9105 35.9709 24.658C38.2661 19.9722 40.2539 15.1434 41.9218 10.202C41.9877 10.0065 42.0123 9.79963 41.9943 9.59423C41.9762 9.38884 41.9157 9.18936 41.8167 9.00825C41.7176 8.82714 41.5821 8.66829 41.4186 8.54161C41.2551 8.41494 41.0671 8.32316 40.8663 8.272C30.2628 5.5823 19.3446 4.31971 8.40365 4.518L7.93723 2.784C7.72324 1.98548 7.25008 1.27965 6.59131 0.776197C5.93253 0.272746 5.12503 -0.000122559 4.29431 4.12952e-08H1.50783ZM4.5235 36C4.5235 35.2043 4.84122 34.4413 5.40676 33.8787C5.97231 33.3161 6.73936 33 7.53916 33C8.33897 33 9.10601 33.3161 9.67156 33.8787C10.2371 34.4413 10.5548 35.2043 10.5548 36C10.5548 36.7957 10.2371 37.5587 9.67156 38.1213C9.10601 38.6839 8.33897 39 7.53916 39C6.73936 39 5.97231 38.6839 5.40676 38.1213C4.84122 37.5587 4.5235 36.7957 4.5235 36ZM30.1566 36C30.1566 35.2043 30.4744 34.4413 31.0399 33.8787C31.6055 33.3161 32.3725 33 33.1723 33C33.9721 33 34.7392 33.3161 35.3047 33.8787C35.8703 34.4413 36.188 35.2043 36.188 36C36.188 36.7957 35.8703 37.5587 35.3047 38.1213C34.7392 38.6839 33.9721 39 33.1723 39C32.3725 39 31.6055 38.6839 31.0399 38.1213C30.4744 37.5587 30.1566 36.7957 30.1566 36Z" fill="#82E4D5"/>
</svg>
